<?xml version="1.0" standalone="no"?>
<!DOCTYPE svg PUBLIC "-//W3C//DTD SVG 20010904//EN"
 "http://www.w3.org/TR/2001/REC-SVG-20010904/DTD/svg10.dtd">
<svg version="1.0" xmlns="http://www.w3.org/2000/svg"
 width="512.000000pt" height="512.000000pt" viewBox="0 0 512.000000 512.000000"
 preserveAspectRatio="xMidYMid meet">

	<g transform="translate(0.000000,512.000000) scale(0.100000,-0.100000)"
	fill="#000000" stroke="none">
		<path d="M2266 4025 c-611 -99 -1003 -508 -1122 -1170 -22 -122 -30 -460 -15
-595 42 -368 157 -641 360 -852 101 -106 184 -167 316 -233 200 -99 388 -138
660 -138 214 0 354 22 536 82 184 62 363 161 392 218 l14 26 134 -2 c150 -2
182 7 187 51 2 16 -116 332 -316 845 -252 645 -484 1238 -539 1381 -12 30 197
-68 336 -157 99 -64 137 -74 163 -43 36 40 48 154 27 254 -9 41 -20 62 -53 93
-92 88 -301 179 -521 225 -132 28 -428 36 -559 15z m164 -328 c0 -2 -8 -21
-19 -43 -10 -21 -173 -436 -362 -922 -287 -735 -346 -880 -356 -866 -22 31
-73 184 -93 284 -44 215 -47 459 -10 685 78 465 330 765 710 846 80 17 130 23
130 16z m488 -1077 c72 -190 134 -353 137 -362 7 -17 -18 -18 -429 -18 -240 0
-436 4 -436 8 0 10 418 1130 427 1145 3 5 43 -89 88 -209 46 -121 141 -374
213 -564z m298 -800 c35 -91 64 -171 64 -178 0 -7 -26 -29 -57 -49 -163 -104
-364 -181 -530 -203 -128 -17 -344 -8 -448 19 -83 22 -242 93 -284 127 l-23
20 72 194 c40 107 76 205 81 218 l9 22 526 -2 526 -3 64 -165z"/>
	</g>
</svg>
